<svg id="aca13976-f341-4634-a27f-416107572203" data-name="Calque 1" xmlns="http://www.w3.org/2000/svg" width="20.78" height="24" viewBox="0 0 20.78 24"><path d="M12.41,1.71l8.91,5.14v10.3l-8.91,5.14L3.49,17.15V6.85l8.92-5.14m0-1.71L2,6V18l10.4,6L22.8,18V6L12.41,0Z" transform="translate(-2.01)"/><path d="M8.82,9.17a.65.65,0,0,1-1.3,0,.64.64,0,0,1,.66-.66A.62.62,0,0,1,8.82,9.17ZM7.65,16.6V10.8h1v5.8Z" transform="translate(-2.01)"/><path d="M10.49,8.63a10.77,10.77,0,0,1,2-.17,3.26,3.26,0,0,1,2.33.66,2,2,0,0,1,.64,1.53A2.13,2.13,0,0,1,14,12.72v0a2,2,0,0,1,1.18,1.63,13,13,0,0,0,.63,2.22H14.68a10.79,10.79,0,0,1-.54-1.93c-.24-1.11-.67-1.53-1.62-1.57h-1v3.5h-1Zm1,3.68H12.6c1.12,0,1.83-.61,1.83-1.54s-.76-1.5-1.86-1.51a4,4,0,0,0-1,.1Z" transform="translate(-2.01)"/><path d="M16.13,12v-.38l.48-.47c1.16-1.1,1.69-1.69,1.7-2.38a.82.82,0,0,0-.91-.89,1.51,1.51,0,0,0-1,.39l-.2-.44a2,2,0,0,1,1.29-.46,1.28,1.28,0,0,1,1.39,1.33c0,.84-.61,1.52-1.57,2.44l-.36.34H19V12Z" transform="translate(-2.01)"/></svg>